<svg xmlns="http://www.w3.org/2000/svg" viewBox="0 0 11.68 16" id="bottle"><path d="M11.58 14L8.51 5.7V3.26a1.48 1.48 0 001-1.39v-.4A1.48 1.48 0 008 0H3.65a1.48 1.48 0 00-1.48 1.47v.4a1.48 1.48 0 001 1.39V5.7L.11 14a1.47 1.47 0 001.37 2h8.72a1.49 1.49 0 001.23-.65 1.47 1.47 0 00.15-1.35zm-8.11-1.89a.5.5 0 01.5-.5.5.5 0 110 1 .5.5 0 01-.5-.5zm3.25.44a.87.87 0 11-.87.86.86.86 0 01.87-.86zM6 10.65a.63.63 0 11.62.62.63.63 0 01-.62-.62zM4.15 5.87v-3.5h-.5a.51.51 0 01-.5-.5v-.4a.51.51 0 01.5-.5H8a.51.51 0 01.5.5v.4a.51.51 0 01-.51.5h-.46v3.5l.86 2.32c-.67.69-5.34.81-5.34.81H3z" fill="#fff"/></svg>