<svg xmlns="http://www.w3.org/2000/svg" viewBox="0 0 16 15.66" id="cup"><path d="M13.3 13.63c-.6 0-1.29-.07-2-.1a6.82 6.82 0 001.67-2.25 1.53 1.53 0 00.75.43 1.65 1.65 0 00.38 0 1.54 1.54 0 00.83-.24 1.58 1.58 0 00.73-1 1.65 1.65 0 00-.19-1.23 1.59 1.59 0 00-1.76-.72 8.49 8.49 0 00.05-.88.57.57 0 00-.56-.57H2.83a.57.57 0 00-.56.57 7.74 7.74 0 002.46 5.84c-.74 0-1.43.06-2 .1-2.09.15-2.7.29-2.7.94s.61.79 2.7.94c1.42.1 3.3.15 5.3.15s3.88-.05 5.3-.15c2.09-.15 2.7-.29 2.7-.94s-.64-.74-2.73-.89zm.27-4.3a.94.94 0 011.29.31 1 1 0 01.11.72.93.93 0 01-.43.58.91.91 0 01-.7.11 1 1 0 01-.58-.42v-.05a8.19 8.19 0 00.31-1.25zM8 13.69c-2.4 0-4.37-2.39-4.59-5.44h9.18c-.22 3.05-2.19 5.44-4.59 5.44zM7 6a.47.47 0 00.36-.18.44.44 0 00.06-.43 3.23 3.23 0 01.13-2.3 2.94 2.94 0 00.57-2.4A1.06 1.06 0 007.45 0a.45.45 0 00-.55.3.45.45 0 00.28.56.25.25 0 01.1.13c0 .14.1.57-.49 1.56l-.14.23C6 3.9 5.74 4.73 6 5.31A1.23 1.23 0 007 6zm2.39.08a.42.42 0 00.33-.16.43.43 0 00.07-.41 1.72 1.72 0 01.05-1.31 1.92 1.92 0 00.36-1.59.8.8 0 00-.5-.5.42.42 0 00-.52.29.36.36 0 000 .32.44.44 0 00.25.21h-.05s.07.24-.28.83L9 3.9c-.46.71-.58 1.25-.38 1.66a.86.86 0 00.73.49z" fill="#fff" fill-rule="evenodd"/></svg>