<svg xmlns="http://www.w3.org/2000/svg" viewBox="0 0 16 16.01" id="tvicon">
  <path d="M14.66 4H9l2.24-2.69h.1A.66.66 0 0 0 12 .67a.67.67 0 0 0-1.34 0 .54.54 0 0 0 .05.22L8.12 4h-.24L5.29.89a.78.78 0 0 0 0-.22.67.67 0 1 0-.66.66h.1L7 4H1.33A1.34 1.34 0 0 0 0 5.34v9.33A1.34 1.34 0 0 0 1.33 16h13.33A1.34 1.34 0 0 0 16 14.67V5.34A1.34 1.34 0 0 0 14.66 4zM12 13.34a1.34 1.34 0 0 1-1.34 1.33h-8a1.34 1.34 0 0 1-1.34-1.33V6.67a1.33 1.33 0 0 1 1.35-1.33h8A1.33 1.33 0 0 1 12 6.67zm2-6a1 1 0 1 1 .95-1A1 1 0 0 1 14 7.38z" fill="#fff"/>
</svg>
