<svg xmlns="http://www.w3.org/2000/svg" viewBox="0 0 11.68 16"><defs><style>.a{fill:#fff;}</style></defs><title>bottle-icon</title><path class="a" d="M11.58,14,8.51,5.7V3.26a1.48,1.48,0,0,0,1-1.39v-.4A1.48,1.48,0,0,0,8,0H3.65A1.48,1.48,0,0,0,2.17,1.47v.4a1.48,1.48,0,0,0,1,1.39V5.7L.11,14a1.47,1.47,0,0,0,1.37,2H10.2a1.49,1.49,0,0,0,1.23-.65A1.47,1.47,0,0,0,11.58,14ZM3.47,12.11a.5.5,0,0,1,.5-.5.5.5,0,1,1,0,1A.5.5,0,0,1,3.47,12.11Zm3.25.44a.87.87,0,1,1-.87.86A.86.86,0,0,1,6.72,12.55ZM6,10.65a.63.63,0,1,1,.62.62A.63.63,0,0,1,6,10.65ZM4.15,5.87V2.37H3.65a.51.51,0,0,1-.5-.5v-.4a.51.51,0,0,1,.5-.5H8a.51.51,0,0,1,.5.5v.4a.51.51,0,0,1-.51.5H7.53v3.5l.86,2.32,0,0C7.72,8.88,3.05,9,3.05,9H3Z"/></svg>