<svg xmlns="http://www.w3.org/2000/svg" viewBox="0 0 16 15.66"><defs><style>.a{fill:#fff;fill-rule:evenodd;}</style></defs><title>cup-icon</title><path class="a" d="M13.3,13.63c-.6,0-1.29-.07-2-.1a6.82,6.82,0,0,0,1.67-2.25,1.53,1.53,0,0,0,.75.43,1.65,1.65,0,0,0,.38,0,1.54,1.54,0,0,0,.83-.24,1.58,1.58,0,0,0,.73-1,1.65,1.65,0,0,0-.19-1.23,1.59,1.59,0,0,0-1.76-.72,8.49,8.49,0,0,0,.05-.88.57.57,0,0,0-.56-.57H2.83a.57.57,0,0,0-.56.57,7.74,7.74,0,0,0,2.46,5.84c-.74,0-1.43.06-2,.1-2.09.15-2.7.29-2.7.94s.61.79,2.7.94c1.42.1,3.3.15,5.3.15s3.88-.05,5.3-.15c2.09-.15,2.7-.29,2.7-.94S15.39,13.78,13.3,13.63Zm.27-4.3h0a.94.94,0,0,1,1.29.31,1,1,0,0,1,.11.72.93.93,0,0,1-.43.58.91.91,0,0,1-.7.11,1,1,0,0,1-.58-.42l0-.05A8.19,8.19,0,0,0,13.57,9.33ZM8,13.69c-2.4,0-4.37-2.39-4.59-5.44h9.18C12.37,11.3,10.4,13.69,8,13.69ZM7,6H7a.47.47,0,0,0,.36-.18.44.44,0,0,0,.06-.43,3.23,3.23,0,0,1,.13-2.3A2.94,2.94,0,0,0,8.12.69,1.06,1.06,0,0,0,7.45,0a.45.45,0,0,0-.55.3.45.45,0,0,0,.28.56.25.25,0,0,1,.1.13c0,.14.1.57-.49,1.56l0,0-.14.23C6,3.9,5.74,4.73,6,5.31A1.23,1.23,0,0,0,7,6Zm2.39.08h0a.42.42,0,0,0,.33-.16.43.43,0,0,0,.07-.41A1.72,1.72,0,0,1,9.84,4.2a1.92,1.92,0,0,0,.36-1.59.8.8,0,0,0-.5-.5.42.42,0,0,0-.52.29.36.36,0,0,0,0,.32.44.44,0,0,0,.25.21l-.05,0s.07.24-.28.83l0,0L9,3.9c-.46.71-.58,1.25-.38,1.66A.86.86,0,0,0,9.35,6.05Z"/></svg>