<svg xmlns="http://www.w3.org/2000/svg" viewBox="0 0 16 15.03"><defs><style>.a{fill:#fff;fill-rule:evenodd;}</style></defs><title>paper-plane-icon</title><path class="a" d="M15.94,0a.17.17,0,0,0-.17,0L.09,8A.16.16,0,0,0,0,8.12a.16.16,0,0,0,.11.14l5,1.57a.18.18,0,0,0,.16,0L12.78,3.4,7,10.2a.16.16,0,0,0,0,.15.2.2,0,0,0,.11.11l5.82,1.76h0a.12.12,0,0,0,.08,0,.2.2,0,0,0,.08-.1L16,.2A.18.18,0,0,0,15.94,0ZM7.15,11.7a.17.17,0,0,0-.14,0,.17.17,0,0,0-.07.13v3a.16.16,0,0,0,.12.15h.05A.17.17,0,0,0,7.24,15l1.61-2.53a.17.17,0,0,0,0-.14.17.17,0,0,0-.11-.09Z"/></svg>