<svg xmlns="http://www.w3.org/2000/svg" viewBox="0 0 16 16.01"><defs><style>.a{fill:#fff;}</style></defs><title>tv-icon</title><path class="a" d="M14.66,4H9l2.24-2.69.1,0A.66.66,0,0,0,12,.67a.67.67,0,0,0-1.34,0,.54.54,0,0,0,.05.22L8.12,4H7.88L5.29.89a.78.78,0,0,0,0-.22.67.67,0,1,0-.66.66l.1,0L7,4H1.33A1.34,1.34,0,0,0,0,5.34v9.33A1.34,1.34,0,0,0,1.33,16H14.66A1.34,1.34,0,0,0,16,14.67V5.34A1.34,1.34,0,0,0,14.66,4ZM12,13.34a1.34,1.34,0,0,1-1.34,1.33h-8a1.34,1.34,0,0,1-1.34-1.33V6.67A1.33,1.33,0,0,1,2.67,5.34h8A1.33,1.33,0,0,1,12,6.67Zm2-6a1,1,0,1,1,.95-1A1,1,0,0,1,14,7.38Z"/></svg>