<svg xmlns="http://www.w3.org/2000/svg" viewBox="0 0 11.68 15.95"><defs><style>.cls-1{fill:#fff;fill-rule:evenodd;}</style></defs><title>bottle</title><g id="Layer_2" data-name="Layer 2"><g id="Partners"><g id="Partner_2" data-name="Partner 2"><g id="Shape_155" data-name="Shape 155"><path class="cls-1" d="M11.58,14,8.51,5.68V3.25a1.48,1.48,0,0,0,1-1.39V1.47A1.48,1.48,0,0,0,8,0H3.65A1.48,1.48,0,0,0,2.17,1.47v.39a1.48,1.48,0,0,0,1,1.39V5.68L.11,13.93A1.45,1.45,0,0,0,.25,15.3,1.49,1.49,0,0,0,1.48,16H10.2a1.47,1.47,0,0,0,1.23-.65A1.45,1.45,0,0,0,11.58,14ZM4,12.57a.5.5,0,0,1-.5-.5.5.5,0,0,1,.5-.5.51.51,0,0,1,.51.5A.5.5,0,0,1,4,12.57Zm2.75,1.67a.87.87,0,1,1,.87-.87A.86.86,0,0,1,6.72,14.24ZM6,10.62a.63.63,0,1,1,.62.62A.63.63,0,0,1,6,10.62ZM8.36,8.2c-.64.66-5.31.73-5.31.73H3L4.15,5.85V2.36H3.65a.5.5,0,0,1-.5-.5V1.47a.5.5,0,0,1,.5-.5H8a.5.5,0,0,1,.5.5v.39a.5.5,0,0,1-.51.5H7.53V5.85l.86,2.32ZM5.5,6.37a.68.68,0,1,0,.68.68A.67.67,0,0,0,5.5,6.37Z"/></g></g></g></g></svg>