<svg xmlns="http://www.w3.org/2000/svg" viewBox="0 0 16.01 15.63"><defs><style>.cls-1{fill:#fff;fill-rule:evenodd;}</style></defs><title>cup</title><g id="Layer_2" data-name="Layer 2"><g id="Partners"><g id="Partner_3" data-name="Partner 3"><g id="Shape_153" data-name="Shape 153"><path class="cls-1" d="M13.31,13.61c-.6,0-1.29-.08-2-.11A6.94,6.94,0,0,0,13,11.26a1.53,1.53,0,0,0,.75.43,1.58,1.58,0,0,0,.38.05,1.63,1.63,0,0,0,.83-.24,1.61,1.61,0,0,0,.73-1,1.65,1.65,0,0,0-.19-1.23,1.6,1.6,0,0,0-1.76-.72,8.49,8.49,0,0,0,.05-.88.56.56,0,0,0-.56-.56H2.83a.56.56,0,0,0-.56.56,7.74,7.74,0,0,0,2.46,5.84c-.74,0-1.43.05-2,.1-2.09.14-2.7.28-2.7.93s.61.79,2.7.93c1.42.1,3.3.16,5.3.16s3.89-.06,5.31-.16c2.09-.14,2.7-.28,2.7-.93S15.4,13.75,13.31,13.61Zm.27-4.3h0a.93.93,0,0,1,1.28.31,1,1,0,0,1,.11.72.88.88,0,0,1-.42.58.92.92,0,0,1-.71.11.93.93,0,0,1-.57-.42l0,0A9.53,9.53,0,0,0,13.58,9.31ZM8,13.66c-2.39,0-4.37-2.39-4.59-5.42H12.6C12.38,11.27,10.4,13.66,8,13.66ZM7,6H7a.45.45,0,0,0,.35-.18.44.44,0,0,0,.07-.43,3.12,3.12,0,0,1,.12-2.29A3,3,0,0,0,8.12.69,1.05,1.05,0,0,0,7.46,0a.45.45,0,0,0-.56.3.46.46,0,0,0,.28.56.17.17,0,0,1,.1.12c0,.14.11.58-.48,1.57l0,0-.15.23C6,3.89,5.74,4.72,6,5.3A1.24,1.24,0,0,0,7,6ZM9.35,6h0a.44.44,0,0,0,.34-.16.43.43,0,0,0,.06-.41,1.84,1.84,0,0,1,.06-1.28,1.88,1.88,0,0,0,.37-1.58A.83.83,0,0,0,9.7,2.1a.43.43,0,0,0-.52.29.44.44,0,0,0,0,.32.46.46,0,0,0,.25.21l0,0s.07.24-.28.83l0,0L9,3.9c-.45.7-.58,1.24-.38,1.65A.86.86,0,0,0,9.35,6Z"/></g></g></g></g></svg>