<svg xmlns="http://www.w3.org/2000/svg" viewBox="0 0 16 15"><defs><style>.cls-1{fill:#fff;fill-rule:evenodd;}</style></defs><title>paper-plane</title><g id="Layer_2" data-name="Layer 2"><g id="Partners"><g id="Partner_4" data-name="Partner 4"><g id="Shape_170" data-name="Shape 170"><path class="cls-1" d="M15.94,0a.19.19,0,0,0-.18,0L.09,8A.17.17,0,0,0,0,8.11a.18.18,0,0,0,.11.14l5,1.56a.15.15,0,0,0,.16,0l7.54-6.39L7,10.18a.14.14,0,0,0,0,.15.15.15,0,0,0,.11.11l5.82,1.76h0l.08,0a.16.16,0,0,0,.08-.1L16,.2A.18.18,0,0,0,15.94,0ZM7.15,11.68a.17.17,0,0,0-.14,0,.17.17,0,0,0-.07.13v3a.16.16,0,0,0,.12.16h0a.15.15,0,0,0,.14-.07l1.61-2.52a.14.14,0,0,0,0-.14.16.16,0,0,0-.1-.1Z"/></g></g></g></g></svg>