<svg xmlns="http://www.w3.org/2000/svg" viewBox="0 0 16.01 15.97"><defs><style>.cls-1{fill:#fff;}</style></defs><title>tv</title><g id="Layer_2" data-name="Layer 2"><g id="Partners"><g id="Partner_1" data-name="Partner 1"><g id="Shape_128" data-name="Shape 128"><path class="cls-1" d="M14.67,4H9l2.25-2.68.1,0A.67.67,0,0,0,12,.67a.67.67,0,0,0-1.34,0,.54.54,0,0,0,.05.22L8.13,4H7.88L5.29.89a.54.54,0,0,0,0-.22A.67.67,0,0,0,4,.67a.67.67,0,0,0,.67.66l.1,0L7,4H1.33A1.34,1.34,0,0,0,0,5.32v9.32A1.33,1.33,0,0,0,1.33,16H14.67A1.33,1.33,0,0,0,16,14.64V5.32A1.34,1.34,0,0,0,14.67,4ZM12,13.31a1.33,1.33,0,0,1-1.34,1.33h-8a1.33,1.33,0,0,1-1.34-1.33V6.66A1.34,1.34,0,0,1,2.67,5.32h8A1.34,1.34,0,0,1,12,6.66Zm2-5.95a1,1,0,1,1,.95-1A.95.95,0,0,1,14,7.36Z"/></g></g></g></g></svg>